<svg width="100" height="100" viewBox="0 0 64 64" xmlns="http://www.w3.org/2000/svg">
  <!-- Cloud -->
  <ellipse cx="32" cy="30" rx="18" ry="10" fill="#B0C4DE"/>
  <ellipse cx="22" cy="30" rx="10" ry="8" fill="#B0C4DE"/>
  <ellipse cx="42" cy="30" rx="10" ry="8" fill="#B0C4DE"/>
  <!-- Raindrops -->
  <g fill="#1E90FF">
    <path d="M22,42 c0,2-2,4-2,4s-2-2-2-4a2,2 0 0,1 4,0"/>
    <path d="M32,42 c0,2-2,4-2,4s-2-2-2-4a2,2 0 0,1 4,0"/>
    <path d="M42,42 c0,2-2,4-2,4s-2-2-2-4a2,2 0 0,1 4,0"/>
  </g>
</svg>

